<svg xmlns="http://www.w3.org/2000/svg" width="741.845" height="741.796" viewBox="0 0 741.845 741.796"><g opacity="0.1"><circle cx="370.898" cy="370.898" r="370.898" transform="translate(0 0)" fill="#65b1ef"/><g transform="translate(0.813 24.005)"><path d="M131.464,470.129c-.07.139-.163.232-.232.371.557.139,1.091.325,1.648.441Z" transform="translate(58.373 187.997)" fill="#e9eff4"/><path d="M115.543,112.7l-.743-1.509c6.2-.929,6.617-5.293,11.329-6.9,5.363-1.764,3.529.163,8.8,0,4.272-.186,6.872,2.925,11.747.65a16.784,16.784,0,0,1-5.038,4.945c-4.016,2.856-8.126,5.781-12.908,6.9C123.947,117.879,118.329,116.718,115.543,112.7Z" transform="translate(50.962 22.67)" fill="#e9eff4"/><path d="M241.263,461.117c-.093,3.273-2.02,6.129-3.691,8.892a90.192,90.192,0,0,0-12.978,40.535c-1,13.674-.395,30.529-12.3,37.262-6.8,3.784-16.367,3.111-20.894,9.5a21.186,21.186,0,0,0-2.763,6.64q-4.388,15.984-8.8,31.968c-3.784-.325-7.638-.743-11.4-1.161,4.457,1.416,7.545,7.452,4.875,11.585-4.272-2.252-9.89.418-12.258,4.713-2.252,4.272-1.927,9.472-.673,14.185a41.426,41.426,0,0,0,29.809,28.509c-2.438,4.62-9.89,2.6-14.44-.487a172.819,172.819,0,0,1-68.185-93c-3.947-13.256-6.477-27.348-14.208-38.747-6.454-9.635-16.2-16.692-22.659-26.327-9.054-13.837-10.749-31.783-21.243-44.435-5.874-7.22-14.951-16.089-9.751-23.82,2.089-3.181,6.547-6.2,4.782-9.565-.58-1.091-1.764-1.764-2.693-2.693-3.529-3.784-1.091-9.727.673-14.6,2.925-8.474,2.925-17.528,1.672-26.582a76.414,76.414,0,0,1-20.151-28.695c-2.6-6.709-6.059-15.09-13.256-15.183-1.857-5.2-3.784-10.4-5.641-15.6A5.374,5.374,0,0,1,.56,317.271,368.792,368.792,0,0,1,93.726,95.4a36.882,36.882,0,0,0,3.529-1.857c12.653-7.383,22.728-18.457,34.963-26.513,2.507-1.672,5.363-3.273,8.474-2.948,3.018.255,5.874,3.343,4.782,6.2a6.442,6.442,0,0,1-2.438,2.856A258.733,258.733,0,0,1,96.326,104.8c-2,1-4.109,2.182-5.015,4.2-1.695,3.436,1.161,7.708,4.783,8.961,3.6,1.254,7.638.511,11.329-.325a18.3,18.3,0,0,0-2.438,15.6c3.436.325,4.527-4.365,5.549-7.638,4.179-13,24.911-18.294,23.564-31.992,5.618,2.925,11.329-3.622,14.765-8.985,3.436-5.456,11.074-10.819,15.276-6.036.232,2.67.557,5.363.813,8.056,7.383-1.857,14.858-3.784,22.241-5.641a10.709,10.709,0,0,0,10.053,18.712c-.07,3.947-3.6,6.965-6.8,9.31-8.126,6.129-16.855,12.421-26.327,15.439l2.182,4.527a2.06,2.06,0,0,1-.743.186c-6.036.58-12.421-3.761-18.875-2.925-3.947.511-8.8.511-11.074,4.527-.325.511-1.741,7.545-.743,6.965q5.293-3.03,10.494-6.036a17.185,17.185,0,0,1,.743,9.147,20.527,20.527,0,0,1,12.513,2.763,24.869,24.869,0,0,1-24.075,14.51c-.093-3.018-.255-6.036-.348-9.054-8.218-.673-14.928,6.384-19.037,13.442-4.179,7.127-7.359,15.276-14.255,19.8-4.179,2.856-9.31,3.947-13.837,6.292-4.434,2.438-8.543,7.058-7.615,12,.418,2.345,1.927,4.527,1.857,6.965-.255,4.527-5.525,6.64-9.054,9.565-6.036,5.038-7.545,14.278-14,18.712-4.69,3.273-10.911,3.2-16.367,4.875s-10.912,7.127-8.706,12.421a4.864,4.864,0,0,1-6.222-3.947,184.094,184.094,0,0,0-18.6,60.756c4.782,3.343,9.635-4.295,10.563-10.076,1-5.781,6.036-13.349,10.726-9.913-1.091,8.311-2.182,16.53-3.25,24.841a7.331,7.331,0,0,0,.348,4.69c.929,1.764,2.925,2.507,4.457,3.761,4.272,3.691,3.691,10.238,3.947,15.857a40.408,40.408,0,0,0,6.129,19.455c-.348-1.184-.58-2.345-.836-3.529A23.471,23.471,0,0,0,58.739,349.4c2.6-2.345,4.782-5.363,8.056-6.547,3.366-1.254,7.058-.348,10.494.58,10.656,2.925,21.986,6.2,29.113,14.58,3.6,4.272,5.874,9.658,10.169,13.163,9.727,8.218,26.188,4.6,35.079,13.744,7.127,7.383,5.8,19.292,3.877,29.438-4.875-2.67-11.4,4.039-8.543,8.822,2.6-2.856,5.618-5.874,9.4-5.874,3.854-.093,7.22,5.2,4.365,7.638,6.709-8.567,23.146-5.038,25.747,5.618,9.4.673,18.875,1.323,28.277,2.089C212.963,446.445,241.844,447.258,241.263,461.117Z" transform="translate(-0.56 4.85)" fill="#e9eff4"/><path d="M130.251,79.092a7.2,7.2,0,1,1-4.806-13.465c2.484-.58,5.943-.3,6.709-2.739a7.77,7.77,0,0,0,.093-2.322c-.093-4.6,4.016-8.4,8.451-9.565,4.434-1.138,9.124-.255,13.628.627a16.906,16.906,0,0,1,1.3,10.772c-3.088.139-6.175.255-9.263.395.279,5.131-.232,11.585-4.991,13.488-4.272,1.695-9.844-1.463-13.4,1.416" transform="translate(53.271 -1.272)" fill="#e9eff4"/><path d="M160.176,43.143c8.427-4.04,15.555-10.4,23.866-14.672,14.3-7.336,30.993-7.986,47.059-8.5l109.7-3.413q-12.711,6.965-25.445,13.953c-6.918,3.807-14.789,7.708-22.38,5.549a11.88,11.88,0,0,0,11.515,11.724c-15.021,9.286-35.869-.209-51.725,7.592-6.64,3.273-12,9.449-19.316,10.61-4.225.673-8.613-.464-12.815.464-7.034,1.532-11.469,8.2-16.669,13.163-5.99,5.734-14.789,9.658-22.612,6.918s-11.91-14.371-5.641-19.8c3.088-2.67,7.5-3.111,11.144-4.991,3.645-1.857,6.524-6.849,3.784-9.89-1.184-1.323-3.134-1.834-4.225-3.25-1.184-1.532-1.068-3.715-2.043-5.386-3.715-6.524-14.046,2.252-21.08-.371" transform="translate(71.426 -16.561)" fill="#e9eff4"/><path d="M236.7,58.8c4.945-1.138,9.24-4.063,13.86-6.2s10.122-3.39,14.649-1.138c1.347,3.366-2.531,6.431-5.943,7.638a41.568,41.568,0,0,1-20.5,1.788" transform="translate(105.94 -1.36)" fill="#e9eff4"/><path d="M534.267,96.48a11.805,11.805,0,0,1-4.2-.255c-6.292-1.347-11.074-6.2-16.46-9.727a43.742,43.742,0,0,0-42.787-2.577,25.6,25.6,0,0,0,4.434-15.949l-1.927.673C451.34,55.9,425.57,42.666,401.588,51.232c-5.549,2.02-10.563,5.038-16.182,6.965-5.966,2.089-12.583,2.948-17.691,6.64-5.2,3.691-7.963,11.84-3.506,16.274,3.784,3.784,9.82,2.763,15.114,3.273,5.2.511,11.167,5.688,8.311,10.145q-34.476,16.123-69.021,32.433c10.563,3.436,17.551,15.415,15.276,26.327-7.731,1.347-15.183-3.343-22.984-3.854-11.329-.58-22.148,9.4-22.38,20.732-.325,11.329,10.076,21.8,21.405,21.637,8.474-.093,16.785-5.2,25-3.041.325-7.731,5.618-14.278,11.051-19.8,10.563-10.586,25.654-20.151,39.769-14.951,4.62,1.672,8.567,4.783,12.421,7.87q12.711,10.064,25.445,20.291c2.693-2.763,5.363-5.549,8.056-8.218,4.62,4.875,9.24,9.727,13.93,14.672,2.345-1.6,4.782-3.111,7.127-4.713,1.672,4.365,3.436,8.636,5.131,13,.673-4.783,1.254-9.472,1.834-14.185,5.549.163,11.422.325,16.437-2.182,5.038-2.438,8.729-8.474,6.617-13.674-1.091-2.763-3.691-4.945-4.2-7.893-1.091-5.874,7.29-9.89,12.746-7.22,5.363,2.6,8.056,8.729,10.331,14.347,1.254-5.711,2.414-11.329,3.691-17.041a134.787,134.787,0,0,0,22.218,38.028,91.35,91.35,0,0,0-51.423,5.224,26.985,26.985,0,0,0,22.752,11.144c3.947-.093,8.311-1,11.329,1.509,2.275,1.927,2.856,5.038,3.274,7.893,1.346,8.056,2.693,16.019,3.947,23.982-9.077-7.452-22.148-6.617-33.988-6.849-11.84-.325-25.677-3.6-30.041-14.58a23.728,23.728,0,0,0-5.433,19.9c-12.258-2.925-26.35-7.615-29.879-19.71-9.565,3.529-21.475-2.577-24.075-12.4-.929-3.436-1.184-7.638-4.2-9.472-1.834-1.091-4.2-.929-6.384-.673-18.2,2.113-36.333,4.132-54.441,6.245-9.89,1.184-20.128,2.368-28.857,7.22-8.729,4.783-15.671,14.185-14.672,24.1a113.124,113.124,0,0,0-40.419,41.139c-3.018,5.2-5.618,11.167-4.434,17.04.836,4.527,3.854,8.381,4.782,12.838,1.6,7.638-2.763,15.021-4.6,22.566-5.2,21.475,11.1,41.7,26.211,57.947,7.127,7.545,15.369,15.764,25.77,16.182,6.454.255,12.583-2.6,18.619-4.968a135.039,135.039,0,0,1,54.6-9.17c-4.2,3.273.163,10.4,5.386,11.492,5.2,1.091,10.819-.6,15.857,1.161,11.492,4.109,9.913,20.964,4.713,31.968,2.6-.511,5.293-1.021,7.963-1.509-1.416,3.691-2.856,7.383-4.272,10.981,15.764,2,21.73,22.728,18.062,38.237-3.6,15.531-12.815,29.786-13.071,45.735-.07,8.729,2.6,17.2,5.293,25.491q10.1,31.585,20.175,63.24c18.8,2.252,29.6-21.66,47.059-29.136,6.547-2.855,14.255-3.436,19.385-8.311,4.945-4.69,3.343-15.694-3.018-15.694,8.636-.929,16.019-8.822,16.274-17.551.093-2.438-.255-4.875.07-7.29.58-3.436,2.763-6.454,4.852-9.4,13.326-19.13,21.962-41.046,30.6-62.683,2.252-5.8,4.527-11.492,6.779-17.3,8.544-21.568,17.017-43.042,25.561-64.61,3.343-8.474,6.71-16.855,10.053-25.352-4.62,7.638-16.692,6.64-23.587.929-6.965-5.688-10.587-14.348-16.042-21.475-4.62-6.129-10.842-11.562-13.024-19.037-1.254-4.272-1.021-8.892-1.764-13.349-1.695-9.658-8.056-17.691-12.421-26.42s-6.64-20.035-.511-27.7a1061.781,1061.781,0,0,1,48.2,94.953,20.563,20.563,0,0,1,9.983-11.84c3.436-1.857,7.29-2.6,10.911-4.109a26.884,26.884,0,0,0-.186-49.4c-4.782-2.02-10.238-2.67-14.765-5.456-4.527-2.67-7.8-8.8-4.945-13.256,2.67-4.2,9.147-4.109,13.581-1.764,4.458,2.438,7.731,6.547,11.91,9.31,3.018,2.02,6.547,3.343,9.82,5.2,17.714,10.145,22.078,33.222,25.793,53.35,2.02,10.819,4.3,21.568,6.988,32.131.093-2.275.07-4.62.07-6.872A369.567,369.567,0,0,0,534.267,96.48Zm33.965,121.884c-2.438-.163-4.69-1.764-6.64-3.273-3.18-2.507-6.384-5.456-7.313-9.4-1.091-4.69,1.161-10.076-1.346-14.255-1.184-2.02-3.273-3.273-5.038-4.69a26.349,26.349,0,0,1-9.24-14.672c-1.091-5.038.488-11.747,5.618-12.583a5.972,5.972,0,0,1,6.2,3.181l-3.436,1.857c5.781.673,8.474,9.4,4.039,13.163-.58.58-1.347,1.091-1.347,1.927a1.81,1.81,0,0,0,.766,1.347c3.6,3.947,8.984,5.363,13.674,7.87,4.69,2.438,9.31,6.965,8.567,12.165-1.509.58-2.925,1.091-4.434,1.672-1.6,1.6-.325,4.457,1.347,6.036s3.854,3.181,3.947,5.525C573.6,216.762,570.74,218.527,568.232,218.364Z" transform="translate(107.329 -2.154)" fill="#e9eff4"/><path d="M479.022,343.457l-6.059,4.295a16.413,16.413,0,0,1-9.286,19.037c-3.784,1.532-8.822,2.206-10.1,6.083-1.068,3.3,1.486,6.64,1.834,10.076.557,5.711-4.782,9.983-8.636,14.231s-5.9,12.235-.766,14.789a10.458,10.458,0,0,0,3.877.836c5.572.488,11.678.65,16.228-2.6,13.047-9.31.65-34.569,13.535-44.133,1.834-1.347,4.132-2.322,5.131-4.365C487.821,355.692,476.608,349.725,479.022,343.457Z" transform="translate(198.953 130.868)" fill="#e9eff4"/></g></g></svg>