<svg xmlns="http://www.w3.org/2000/svg" width="997.833" height="391.285" viewBox="0 0 997.833 391.285"><g transform="translate(-149.136 -250.934)"><path d="M84.571,233.978V-8.38H2.136V-61.139H222.649V-8.38H140.214V233.978ZM292.306,4.809a34.3,34.3,0,0,1-13.4-2.679,34.345,34.345,0,0,1-11.129-7.419,34.97,34.97,0,0,1-7.419-10.923,33.848,33.848,0,0,1-2.679-13.6,33.848,33.848,0,0,1,2.679-13.6,34.971,34.971,0,0,1,7.419-10.923,34.345,34.345,0,0,1,11.129-7.419,34.3,34.3,0,0,1,13.4-2.679,34.075,34.075,0,0,1,24.73,10.1,33.054,33.054,0,0,1,10.3,24.524,33.054,33.054,0,0,1-10.3,24.524A34.075,34.075,0,0,1,292.306,4.809ZM265.515,233.978V32.013H319.51V233.978ZM387.93,32.013h50.7V58.392h3.3a70.827,70.827,0,0,1,25.761-23.906,72.854,72.854,0,0,1,36.065-9.068q23.082,0,38.744,10.717t22.257,26.379q9.48-15.25,26.791-26.173t42.042-10.923q18.548,0,32.15,5.977A59.866,59.866,0,0,1,688.2,48.087a72.882,72.882,0,0,1,13.4,25.761,113.127,113.127,0,0,1,4.534,32.768V233.978H652.134V116.508q0-41.217-33.8-41.217a37.352,37.352,0,0,0-18.96,4.74,42.266,42.266,0,0,0-13.808,12.777,63.037,63.037,0,0,0-8.656,19.166,89,89,0,0,0-3.091,23.906v98.1H519.826V116.508q0-41.217-35.447-41.217a34.331,34.331,0,0,0-18.136,4.74,41.738,41.738,0,0,0-13.189,12.777,62.618,62.618,0,0,0-8.243,19.166,94.994,94.994,0,0,0-2.885,23.906v98.1H387.93ZM960.852,185.341a113.154,113.154,0,0,1-37.714,39.981q-23.7,15.25-57.91,15.25a111.254,111.254,0,0,1-42.66-8.037A101.763,101.763,0,0,1,766.1,176.067,112.365,112.365,0,0,1,758.062,133a110.494,110.494,0,0,1,7.831-41.423,104.53,104.53,0,0,1,55.025-57.5,101.462,101.462,0,0,1,42.248-8.656q24.318,0,43.278,8.037a88.288,88.288,0,0,1,31.737,22.257A95.778,95.778,0,0,1,957.554,89.3a129.67,129.67,0,0,1,6.595,42.042v4.946a27.744,27.744,0,0,0-.412,4.534,23.155,23.155,0,0,0-.412,4.534H811.233a56.8,56.8,0,0,0,6.8,21.227,51.493,51.493,0,0,0,12.777,14.838,49.674,49.674,0,0,0,16.693,8.656,65.123,65.123,0,0,0,18.548,2.679q18.548,0,30.707-8.45a61.658,61.658,0,0,0,19.166-21.227ZM911.8,107.028a34.962,34.962,0,0,0-3.5-11.953,42.079,42.079,0,0,0-9.068-12.365,47.465,47.465,0,0,0-14.838-9.48q-8.862-3.71-21.227-3.71a49.456,49.456,0,0,0-30.5,9.892q-13.19,9.892-18.548,27.616Z" transform="translate(147 401.647)" fill="#fff"/><g transform="translate(384.258 430.137) rotate(-94)"><path d="M0,126.595H122.327L61.164,0Zm0,0L61.164,764.842l61.164-638.247Z" transform="translate(126.157 764.842) rotate(180)" fill="#6a93d9"/><g transform="translate(0 0)" fill="#6a93d9" stroke="#9fd4ff" stroke-width="5"><circle cx="63.079" cy="63.079" r="63.079" stroke="none"/><circle cx="63.079" cy="63.079" r="60.579" fill="none"/></g></g></g></svg>